<?xml version="1.0" standalone="no"?>
<!DOCTYPE svg PUBLIC "-//W3C//DTD SVG 20010904//EN"
 "http://www.w3.org/TR/2001/REC-SVG-20010904/DTD/svg10.dtd">
<svg version="1.0" xmlns="http://www.w3.org/2000/svg"
 width="300.000000pt" height="300.000000pt" viewBox="0 0 300.000000 300.000000"
 preserveAspectRatio="xMidYMid meet">
<metadata>
Created by potrace 1.11, written by Peter Selinger 2001-2013
</metadata>
<g transform="translate(0.000000,300.000000) scale(0.100000,-0.100000)"
fill="#000000" stroke="none">
<path d="M990 2372 c0 -7 -12 -10 -30 -8 -25 3 -28 1 -19 -11 10 -11 9 -12 -5
-7 -9 3 -16 1 -16 -6 0 -6 -4 -8 -10 -5 -5 3 -10 1 -10 -5 0 -6 -5 -8 -12 -4
-6 4 -8 3 -4 -4 3 -6 -4 -18 -16 -26 -12 -9 -19 -18 -15 -22 3 -3 -1 -13 -9
-21 -8 -8 -11 -20 -7 -26 4 -7 0 -8 -12 -3 -13 5 -15 3 -8 -6 12 -16 11 -178
-1 -197 -6 -10 -5 -12 2 -7 7 4 12 1 12 -9 0 -10 -5 -14 -12 -9 -10 5 -10 4
-1 -6 8 -8 9 -20 2 -37 -6 -16 -5 -22 1 -18 6 3 10 -1 10 -10 0 -10 -5 -13
-12 -9 -10 6 -10 5 -1 -7 10 -12 10 -18 0 -29 -9 -10 -9 -11 1 -6 7 5 12 1 12
-9 0 -10 -5 -13 -12 -9 -7 5 -8 3 -3 -6 13 -21 15 -111 3 -104 -7 5 -8 2 -3
-5 12 -20 15 -122 3 -115 -7 4 -7 0 -1 -12 11 -22 10 -55 -2 -74 -5 -9 -4 -11
3 -6 7 4 12 1 12 -9 0 -10 -5 -14 -12 -9 -10 5 -10 4 -1 -6 8 -8 9 -20 2 -37
-6 -16 -5 -22 1 -18 6 3 10 -1 10 -10 0 -10 -5 -13 -12 -9 -7 5 -8 3 -2 -7 12
-21 12 -199 0 -199 -7 0 -6 -3 1 -8 13 -8 12 -29 -1 -51 -6 -9 -5 -12 1 -8 7
4 10 -7 8 -31 -1 -20 2 -45 7 -54 7 -14 5 -16 -8 -11 -12 4 -15 3 -10 -6 13
-21 16 -122 4 -115 -7 5 -8 2 -3 -5 12 -21 15 -122 3 -115 -7 4 -8 2 -4 -5 12
-19 14 -61 4 -67 -4 -3 -5 -11 -1 -17 5 -7 9 -23 9 -37 3 -64 6 -84 11 -72 2
6 9 10 14 6 5 -3 9 -1 9 5 0 5 9 8 19 6 15 -3 18 1 14 13 -3 9 -3 14 2 10 4
-4 17 -3 28 3 10 6 17 7 14 2 -3 -5 3 -9 13 -9 15 0 17 3 7 15 -10 12 -8 14
11 9 12 -4 20 -2 16 3 -5 9 9 13 35 10 8 -2 10 2 5 10 -5 9 -1 11 14 7 12 -4
20 -3 17 2 -4 7 12 17 33 21 4 0 16 6 27 12 19 10 19 9 5 -9 -14 -18 -14 -18
6 -1 11 9 25 14 29 10 5 -5 3 0 -4 10 -12 15 -12 17 3 11 9 -3 24 0 33 7 14
12 16 12 9 -1 -4 -9 -2 -8 7 2 8 10 17 15 20 11 4 -3 7 -1 7 5 0 7 5 12 11 12
5 0 8 -4 5 -8 -3 -5 1 -9 8 -9 7 0 13 7 12 16 -1 12 8 16 39 15 22 -1 34 1 28
3 -7 3 -13 10 -13 16 0 5 3 8 6 4 4 -3 14 1 22 10 11 10 17 12 20 4 2 -6 8
-11 13 -11 6 0 7 4 4 10 -3 6 -1 10 4 10 18 0 26 -5 23 -13 -1 -5 2 -6 7 -2 6
3 7 13 4 22 -5 14 -1 15 27 9 32 -6 33 -5 15 8 -21 16 -2 18 22 3 9 -6 11 -3
6 10 -5 15 -4 16 8 7 8 -6 24 -10 36 -9 12 1 21 -1 19 -4 -2 -3 2 -11 9 -18
11 -10 15 -10 18 0 3 7 6 5 6 -4 1 -9 8 -19 15 -22 11 -4 13 -1 10 11 -5 16
-4 16 9 0 8 -10 17 -15 20 -11 4 3 7 -2 7 -13 0 -16 2 -17 10 -4 6 10 10 11
10 3 0 -7 6 -12 13 -10 6 1 11 -4 9 -11 -1 -8 2 -11 7 -8 5 4 12 2 16 -4 3 -5
12 -10 18 -10 7 0 4 5 -5 11 -10 5 -18 15 -18 22 0 8 3 8 8 2 8 -11 58 -37 81
-41 8 -1 17 -8 21 -14 4 -7 11 -11 16 -10 4 1 11 -7 15 -17 7 -17 8 -16 8 2 1
14 4 16 9 8 4 -7 18 -14 29 -16 12 -2 31 -11 43 -22 11 -10 23 -15 27 -12 3 4
15 0 25 -9 15 -14 16 -20 5 -33 -11 -14 -10 -14 5 -2 10 7 15 18 11 23 -3 6 0
8 8 6 8 -3 13 -11 11 -17 -1 -6 1 -10 5 -10 26 4 43 -2 37 -14 -5 -9 -4 -9 5
-1 14 13 51 7 51 -8 0 -5 -6 -6 -12 -2 -7 4 -9 3 -5 -1 12 -14 38 -15 30 -2
-4 7 1 6 10 -2 15 -12 17 -11 17 3 0 11 5 14 12 10 7 -5 8 -3 2 7 -13 22 -14
42 -1 58 8 10 8 13 1 8 -15 -9 -14 45 1 55 6 5 5 8 -2 8 -7 0 -13 5 -13 11 0
5 6 7 13 3 9 -6 9 -4 -1 8 -9 11 -10 18 -2 23 6 3 7 12 3 18 -12 19 -12 78 0
70 6 -4 7 -1 1 8 -13 22 -16 51 -3 43 7 -4 7 1 -1 16 -10 18 -9 24 1 31 10 6
11 9 2 9 -7 0 -13 5 -13 11 0 5 6 7 13 3 9 -6 9 -4 2 7 -10 13 -12 49 -5 74 2
6 0 18 -5 29 -5 12 -3 21 6 27 10 6 10 9 2 9 -7 0 -13 5 -13 11 0 5 6 7 13 3
9 -6 9 -4 -1 8 -9 11 -10 18 -2 23 6 3 7 12 3 18 -12 19 -12 78 0 70 6 -4 7
-1 1 8 -13 22 -16 51 -3 43 7 -4 7 1 -1 16 -10 18 -9 24 1 31 10 6 11 9 2 9
-7 0 -13 5 -13 11 0 5 6 7 13 3 9 -6 9 -4 -1 8 -9 11 -10 18 -2 23 6 3 7 12 3
18 -12 19 -12 78 0 70 6 -4 7 -1 1 8 -13 22 -16 51 -3 43 7 -4 7 1 -1 16 -10
18 -9 24 1 31 10 6 11 9 2 9 -7 0 -13 5 -13 11 0 5 6 7 13 3 9 -6 9 -4 2 7
-10 13 -12 49 -5 74 2 6 0 18 -5 29 -5 12 -3 21 6 27 10 6 10 9 2 9 -7 0 -13
5 -13 11 0 5 6 7 13 3 9 -6 9 -4 -1 8 -9 11 -10 18 -2 23 6 3 7 12 3 18 -12
19 -12 78 0 70 6 -4 7 -1 1 8 -12 20 -16 51 -5 45 5 -3 7 3 4 14 -3 11 -10 17
-17 14 -6 -3 -2 2 8 10 11 9 14 16 8 16 -7 0 -12 5 -12 11 0 5 5 7 12 3 7 -5
8 -3 2 7 -12 20 -12 61 0 78 9 12 8 13 -3 6 -11 -6 -13 -3 -9 13 3 11 -1 31
-10 43 -8 12 -11 19 -5 16 13 -8 11 19 -2 30 -4 5 -5 1 0 -7 4 -8 -3 -4 -16
10 -13 14 -20 27 -16 29 8 3 -15 19 -53 37 -8 4 -18 12 -22 18 -5 7 -8 6 -8
-4 -1 -12 -3 -12 -11 2 -7 13 -15 15 -33 8 -13 -5 -26 -6 -29 -3 -3 3 -162 4
-354 3 -191 -1 -352 -1 -358 -1 -194 7 -245 5 -240 -9 3 -9 -1 -7 -10 4 -8 11
-15 15 -15 8z m55 -211 c-3 -6 -14 -11 -23 -11 -15 1 -15 2 2 15 21 16 32 13
21 -4z m87 4 c10 -1 18 3 18 9 0 6 5 4 10 -4 8 -13 10 -13 10 0 0 11 3 11 12
2 16 -16 31 -15 22 1 -4 6 3 3 16 -8 13 -11 20 -14 15 -6 -6 11 -2 13 18 9 15
-3 28 0 31 6 4 10 10 -20 7 -37 -1 -5 3 -6 8 -2 6 3 8 12 4 20 -3 9 1 15 11
15 9 0 16 -4 16 -10 0 -5 5 -10 11 -10 5 0 8 4 5 9 -3 5 10 11 29 13 19 2 35
1 35 -4 0 -4 7 -4 17 -1 11 4 14 3 9 -5 -4 -7 -2 -12 3 -12 6 0 11 4 11 9 0 5
18 11 40 13 39 3 47 -3 41 -35 -1 -5 3 -6 8 -2 6 3 8 12 4 20 -3 9 1 15 11 15
9 0 16 -4 16 -10 0 -5 5 -10 11 -10 5 0 8 4 5 9 -3 5 1 11 9 15 14 5 20 -11
16 -37 -1 -5 3 -6 8 -2 6 3 8 12 4 20 -3 9 1 15 11 15 9 0 16 -4 16 -10 0 -5
5 -10 11 -10 5 0 8 4 5 9 -3 5 10 11 29 13 19 2 35 1 35 -4 0 -4 7 -4 17 -1
10 4 14 2 10 -4 -3 -5 0 -10 7 -10 9 0 12 7 8 16 -4 12 -2 14 9 6 8 -6 28 -10
44 -9 17 1 35 -3 42 -8 7 -6 14 -5 18 2 10 16 97 10 91 -7 -3 -7 -2 -13 2 -13
11 0 9 -64 -3 -72 -7 -5 -7 -11 0 -15 15 -12 17 -34 4 -49 -9 -11 -8 -14 2
-14 11 0 11 -2 -1 -10 -8 -5 -10 -10 -4 -10 6 0 11 -7 11 -15 0 -8 -4 -12 -9
-9 -4 3 -8 0 -8 -5 0 -6 6 -11 13 -11 8 0 7 -4 -3 -10 -8 -5 -10 -10 -5 -10
14 0 17 -38 3 -46 -6 -4 -5 -10 3 -15 12 -8 11 -11 -1 -19 -9 -6 -11 -13 -5
-17 15 -12 17 -34 4 -49 -9 -11 -8 -14 2 -14 11 0 11 -2 -1 -10 -8 -5 -10 -10
-4 -10 12 0 12 -29 0 -48 -4 -7 -2 -12 5 -12 10 0 10 -3 1 -12 -8 -8 -9 -15
-1 -25 9 -9 8 -17 -1 -28 -10 -12 -10 -15 1 -15 11 0 11 -2 -1 -10 -13 -9 -13
-10 0 -10 13 0 13 -1 0 -10 -8 -5 -10 -10 -4 -10 6 0 11 -7 11 -15 0 -10 -6
-14 -16 -10 -14 4 -14 4 -1 -7 17 -14 27 -54 12 -44 -11 7 -11 -13 1 -31 4 -6
1 -14 -5 -16 -9 -4 -9 -8 -3 -14 15 -12 17 -34 4 -49 -9 -11 -8 -14 2 -14 11
0 11 -2 -1 -10 -13 -9 -13 -10 0 -10 13 0 13 -1 0 -10 -8 -5 -10 -10 -4 -10 6
0 11 -7 11 -15 0 -10 -6 -14 -16 -10 -14 4 -14 4 -1 -7 17 -14 27 -54 12 -44
-11 7 -11 -13 1 -31 4 -6 1 -14 -5 -16 -9 -4 -9 -8 -3 -14 15 -12 17 -34 4
-49 -9 -11 -8 -14 2 -14 11 0 11 -2 -1 -10 -12 -8 -12 -10 -1 -10 11 0 11 -3
1 -15 -7 -8 -8 -15 -3 -15 10 0 10 -60 -1 -78 -4 -7 -3 -12 2 -12 5 0 7 -12 4
-26 -3 -18 -7 -22 -13 -13 -4 7 -5 18 -2 24 4 5 -3 1 -15 -9 -20 -17 -22 -18
-22 -2 0 9 -5 14 -10 11 -6 -3 -10 0 -10 7 0 9 -3 9 -10 -2 -6 -10 -10 -11
-10 -2 0 6 -7 12 -16 12 -8 0 -13 4 -10 9 3 5 0 9 -7 8 -32 -1 -48 4 -42 13 4
6 -1 7 -11 3 -12 -4 -15 -3 -10 5 5 8 2 10 -8 6 -9 -3 -16 -2 -16 3 0 5 -12
10 -26 11 -33 3 -56 20 -47 36 4 6 -1 5 -10 -3 -11 -9 -17 -10 -17 -2 0 6 -9
11 -19 11 -11 0 -23 5 -26 11 -4 6 -14 8 -22 5 -8 -3 -11 -1 -8 4 6 10 -3 13
-37 13 -9 0 -16 4 -15 10 1 6 -15 12 -35 13 -21 1 -38 -3 -38 -8 0 -6 -7 -8
-15 -4 -8 3 -15 0 -15 -6 0 -7 -5 -6 -15 2 -13 11 -14 10 -9 -5 5 -13 4 -16
-4 -11 -7 4 -12 3 -12 -3 0 -6 -7 -8 -15 -5 -8 4 -15 2 -15 -4 0 -6 -13 -13
-30 -17 -16 -4 -30 -11 -30 -16 0 -5 -5 -9 -11 -9 -5 0 -7 6 -4 13 4 6 -3 1
-14 -12 -13 -14 -21 -18 -21 -10 -1 10 -4 9 -10 -3 -6 -10 -19 -15 -30 -13
-11 2 -18 0 -15 -5 3 -5 1 -11 -5 -15 -5 -3 -10 0 -10 7 -1 8 -7 5 -16 -7 -8
-11 -17 -19 -19 -17 -13 6 -25 1 -19 -9 4 -8 0 -8 -15 0 -17 9 -21 9 -19 -1 2
-7 -3 -12 -9 -11 -7 2 -13 -2 -13 -7 0 -6 -5 -10 -11 -10 -5 0 -7 5 -4 11 4 6
-2 5 -13 -2 -12 -7 -18 -18 -14 -24 3 -5 -2 -4 -11 4 -13 10 -15 17 -6 27 9
11 8 14 -1 14 -10 0 -10 4 1 16 10 13 10 17 -2 26 -11 7 -11 11 -1 15 6 2 12
9 12 14 0 6 -4 8 -9 5 -11 -7 -9 13 2 32 5 7 3 12 -4 12 -8 0 -8 4 2 16 10 13
10 17 -2 25 -12 7 -12 10 0 18 9 6 10 11 2 15 -8 5 -8 13 -1 26 7 13 6 20 -3
24 -9 5 -9 7 1 12 10 5 10 9 1 20 -9 11 -9 17 0 28 9 11 9 15 -1 19 -10 4 -10
7 1 15 9 7 10 12 2 16 -8 5 -8 13 -1 26 7 13 6 20 -3 23 -8 3 -6 10 8 22 11 9
15 14 9 11 -16 -8 -25 19 -11 33 8 8 8 11 -2 11 -11 0 -11 3 0 16 10 13 10 17
-2 26 -11 7 -11 11 -1 15 6 2 12 9 12 14 0 6 -4 8 -8 5 -10 -6 -8 56 2 72 4 7
2 12 -6 12 -9 0 -9 3 2 10 12 8 12 10 1 10 -11 0 -11 3 0 16 10 13 10 17 0 24
-9 5 -10 10 -2 14 6 4 11 13 11 19 0 7 -4 6 -10 -3 -6 -9 -10 -10 -10 -3 0 6
5 15 11 19 8 4 7 9 -2 15 -12 8 -12 10 0 18 8 5 10 14 5 22 -10 17 -10 51 0
67 4 7 2 12 -6 12 -9 0 -9 3 2 10 10 6 11 10 3 10 -7 0 -13 4 -13 10 0 5 8 7
18 4 15 -5 15 -4 -1 6 -14 9 -16 15 -6 26 9 11 9 14 -1 14 -10 0 -10 4 1 16
10 13 10 17 -2 26 -11 7 -11 11 -1 15 6 2 12 9 12 14 0 6 -4 8 -8 5 -7 -4 -8
19 -3 67 1 5 7 5 14 2 6 -4 3 0 -7 9 -16 13 -17 18 -6 31 7 8 9 15 5 15 -4 0
4 9 18 20 29 23 41 26 32 8 -3 -7 0 -5 7 4 6 9 17 14 22 10 6 -3 19 -7 28 -7z"/>
<path d="M1130 2139 c0 -5 5 -7 10 -4 6 3 10 8 10 11 0 2 -4 4 -10 4 -5 0 -10
-5 -10 -11z"/>
<path d="M1175 2140 c3 -5 8 -10 11 -10 2 0 4 5 4 10 0 6 -5 10 -11 10 -5 0
-7 -4 -4 -10z"/>
<path d="M1955 2120 c-3 -5 -1 -10 4 -10 6 0 11 5 11 10 0 6 -2 10 -4 10 -3 0
-8 -4 -11 -10z"/>
<path d="M1295 811 c-3 -5 -2 -12 3 -15 5 -3 9 1 9 9 0 17 -3 19 -12 6z"/>
<path d="M1790 780 c0 -5 5 -10 11 -10 5 0 7 5 4 10 -3 6 -8 10 -11 10 -2 0
-4 -4 -4 -10z"/>
<path d="M1901 731 c-8 -5 -9 -11 -3 -15 5 -3 12 1 16 9 6 17 6 18 -13 6z"/>
<path d="M1830 720 c0 -5 5 -10 11 -10 5 0 7 5 4 10 -3 6 -8 10 -11 10 -2 0
-4 -4 -4 -10z"/>
<path d="M2150 616 c0 -2 8 -10 18 -17 15 -13 16 -12 3 4 -13 16 -21 21 -21
13z"/>
</g>
</svg>
